<svg width="40" height="40" viewBox="0 0 40 40" fill="none" xmlns="http://www.w3.org/2000/svg">
<path fill-rule="evenodd" clip-rule="evenodd" d="M20 8.33334C16.8314 8.33334 16.4347 8.34657 15.1903 8.40334C13.9482 8.46012 13.0996 8.65768 12.3576 8.94623C11.5798 9.23868 10.8744 9.69757 10.291 10.2918C9.69777 10.8744 9.2386 11.5794 8.94549 12.3576C8.65849 13.0996 8.46015 13.9489 8.40337 15.191C8.34737 16.4347 8.33337 16.8306 8.33337 20C8.33337 23.1695 8.3466 23.5653 8.40337 24.8098C8.46015 26.0519 8.65771 26.9005 8.94626 27.6425C9.23871 28.4202 9.6976 29.1257 10.2918 29.709C10.8745 30.3023 11.5794 30.7614 12.3576 31.0546C13.0996 31.3423 13.9482 31.5399 15.1903 31.5967C16.4347 31.6535 16.8314 31.6667 20 31.6667C23.1687 31.6667 23.5654 31.6535 24.8098 31.5967C26.0519 31.5399 26.9005 31.3423 27.6425 31.0538C28.4203 30.7613 29.1257 30.3025 29.709 29.7082C30.3023 29.1256 30.7615 28.4206 31.0546 27.6425C31.3424 26.9005 31.5399 26.0519 31.5967 24.8098C31.6535 23.5653 31.6667 23.1687 31.6667 20C31.6667 16.8313 31.6535 16.4347 31.5967 15.1902C31.5399 13.9481 31.3424 13.0996 31.0538 12.3576C30.7609 11.5791 30.3017 10.8738 29.7083 10.291C29.1256 9.69774 28.4207 9.23857 27.6425 8.94545C26.9005 8.65845 26.0512 8.46012 24.809 8.40334C23.5654 8.34734 23.1695 8.33334 20 8.33334ZM20 10.4357C23.115 10.4357 23.4845 10.4473 24.7149 10.5033C25.852 10.5555 26.4696 10.7445 26.881 10.9055C27.4255 11.1162 27.8144 11.3698 28.2227 11.7773C28.631 12.1857 28.8838 12.5746 29.0946 13.119C29.2548 13.5305 29.4446 14.148 29.4967 15.2851C29.5527 16.5156 29.5644 16.885 29.5644 20C29.5644 23.115 29.5527 23.4845 29.4967 24.7149C29.4446 25.852 29.2556 26.4696 29.0946 26.881C28.9079 27.3878 28.6099 27.8462 28.2227 28.2227C27.8463 28.61 27.3878 28.9079 26.881 29.0946C26.4696 29.2548 25.852 29.4446 24.7149 29.4967C23.4845 29.5527 23.1158 29.5643 20 29.5643C16.8843 29.5643 16.5156 29.5527 15.2852 29.4967C14.148 29.4446 13.5305 29.2556 13.119 29.0946C12.6123 28.9078 12.1538 28.6099 11.7774 28.2227C11.3902 27.8462 11.0923 27.3877 10.9055 26.881C10.7453 26.4696 10.5555 25.852 10.5034 24.7149C10.4474 23.4845 10.4357 23.115 10.4357 20C10.4357 16.885 10.4474 16.5156 10.5034 15.2851C10.5555 14.148 10.7445 13.5305 10.9055 13.119C11.1163 12.5746 11.3698 12.1857 11.7774 11.7773C12.1538 11.39 12.6122 11.0921 13.119 10.9055C13.5305 10.7452 14.148 10.5555 15.2852 10.5033C16.5156 10.4473 16.885 10.4357 20 10.4357Z" fill="#4D1299"/>
<path fill-rule="evenodd" clip-rule="evenodd" d="M19.9867 23.7584C19.4905 23.7584 18.9993 23.6591 18.5409 23.4662C18.0825 23.2733 17.666 22.9905 17.3152 22.634C16.9643 22.2775 16.686 21.8543 16.4962 21.3885C16.3063 20.9227 16.2086 20.4235 16.2086 19.9193C16.2086 19.4152 16.3063 18.916 16.4962 18.4502C16.686 17.9844 16.9643 17.5612 17.3152 17.2047C17.666 16.8482 18.0825 16.5654 18.5409 16.3725C18.9993 16.1795 19.4905 16.0802 19.9867 16.0802C20.9887 16.0802 21.9497 16.4847 22.6583 17.2047C23.3668 17.9247 23.7648 18.9011 23.7648 19.9193C23.7648 20.9375 23.3668 21.914 22.6583 22.634C21.9497 23.354 20.9887 23.7584 19.9867 23.7584ZM19.9867 14.0053C18.4431 14.0053 16.9628 14.6284 15.8713 15.7375C14.7798 16.8466 14.1666 18.3509 14.1666 19.9193C14.1666 21.4878 14.7798 22.9921 15.8713 24.1012C16.9628 25.2103 18.4431 25.8333 19.9867 25.8333C21.5303 25.8333 23.0106 25.2103 24.1021 24.1012C25.1936 22.9921 25.8068 21.4878 25.8068 19.9193C25.8068 18.3509 25.1936 16.8466 24.1021 15.7375C23.0106 14.6284 21.5303 14.0053 19.9867 14.0053ZM27.5 13.898C27.5 14.2687 27.355 14.6243 27.097 14.8865C26.839 15.1486 26.4891 15.2959 26.1242 15.2959C25.7593 15.2959 25.4094 15.1486 25.1514 14.8865C24.8934 14.6243 24.7484 14.2687 24.7484 13.898C24.7484 13.5272 24.8934 13.1716 25.1514 12.9095C25.4094 12.6473 25.7593 12.5 26.1242 12.5C26.4891 12.5 26.839 12.6473 27.097 12.9095C27.355 13.1716 27.5 13.5272 27.5 13.898Z" fill="#4D1299"/>
</svg>
