<svg width="54" height="68" viewBox="0 0 54 68" fill="none" xmlns="http://www.w3.org/2000/svg">
<mask id="mask0_314_10826" style="mask-type:luminance" maskUnits="userSpaceOnUse" x="6" y="0" width="41" height="42">
<path d="M6.12048 0H46.2995V41.9162H6.12048V0Z" fill="white"/>
</mask>
<g mask="url(#mask0_314_10826)">
<path d="M41.7522 37.5097V17.2336L26.2099 5.06499L10.6677 17.2336V37.5097H41.7522ZM46.1922 39.7131C46.1922 39.8572 46.1788 40.0014 46.1507 40.1428C46.1212 40.2843 46.0796 40.4231 46.0233 40.5565C45.9684 40.69 45.9 40.8168 45.8183 40.9369C45.7379 41.057 45.6454 41.1691 45.5422 41.2719C45.439 41.3733 45.3278 41.4654 45.2058 41.5455C45.0852 41.6255 44.9566 41.6936 44.8225 41.7483C44.6872 41.8044 44.5491 41.8457 44.4057 41.8738C44.2623 41.9031 44.1176 41.9165 43.9729 41.9165H8.44702C8.30228 41.9165 8.15754 41.9031 8.01414 41.8738C7.87208 41.8457 7.7327 41.8044 7.59734 41.7483C7.46332 41.6936 7.33466 41.6255 7.21404 41.5455C7.09343 41.4654 6.98085 41.3733 6.87765 41.2719C6.77446 41.1691 6.68199 41.057 6.60157 40.9369C6.52116 40.8168 6.45147 40.69 6.39653 40.5565C6.34024 40.4231 6.29869 40.2843 6.27055 40.1428C6.24106 40.0014 6.22766 39.8572 6.22766 39.7131V16.1646C6.22766 15.8283 6.30137 15.508 6.44879 15.2037C6.59755 14.9008 6.80394 14.6445 7.07064 14.435L24.8336 0.528787C25.0292 0.375312 25.245 0.256535 25.4809 0.175126C25.7167 0.0950521 25.9607 0.0536804 26.2099 0.0536804C26.4592 0.0536804 26.7031 0.0950521 26.939 0.175126C27.1749 0.256535 27.3906 0.375312 27.5863 0.528787L45.3492 14.4337C45.6159 14.6419 45.8237 14.8994 45.9711 15.2024C46.1198 15.5067 46.1936 15.8283 46.1922 16.1646V39.7131ZM15.1091 22.0848H19.5492C19.5492 22.301 19.5599 22.5172 19.5813 22.732C19.6028 22.9482 19.6349 23.1618 19.6765 23.374C19.7194 23.5862 19.773 23.7957 19.836 24.0025C19.899 24.2107 19.9727 24.4136 20.0558 24.6138C20.1402 24.814 20.2327 25.0101 20.3359 25.201C20.4391 25.3918 20.5503 25.5773 20.6723 25.7575C20.7929 25.9363 20.9229 26.1112 21.0609 26.278C21.199 26.4448 21.3464 26.6049 21.5005 26.7584C21.6546 26.9119 21.8154 27.0574 21.9843 27.1948C22.1532 27.3323 22.3274 27.4604 22.5097 27.5805C22.6906 27.7006 22.8782 27.8127 23.0699 27.9142C23.2629 28.0169 23.4599 28.109 23.6609 28.1918C23.8619 28.2745 24.0683 28.3479 24.276 28.4106C24.4851 28.4733 24.6969 28.5254 24.9099 28.5681C25.1244 28.6108 25.3402 28.6415 25.5573 28.6629C25.7744 28.6842 25.9915 28.6949 26.2099 28.6949C26.4284 28.6949 26.6455 28.6842 26.8626 28.6629C27.0797 28.6415 27.2955 28.6108 27.5099 28.5681C27.723 28.5254 27.9348 28.4733 28.1438 28.4106C28.3529 28.3479 28.558 28.2745 28.759 28.1918C28.96 28.109 29.157 28.0169 29.35 27.9142C29.543 27.8127 29.7293 27.7006 29.9102 27.5805C30.0925 27.4604 30.2667 27.3323 30.4356 27.1948C30.6044 27.0574 30.7653 26.9119 30.9194 26.7584C31.0748 26.6049 31.2209 26.4448 31.359 26.278C31.497 26.1112 31.627 25.9363 31.749 25.7575C31.8696 25.5773 31.9821 25.3918 32.084 25.201C32.1872 25.0101 32.281 24.814 32.3641 24.6138C32.4472 24.4136 32.5209 24.2107 32.5839 24.0025C32.6469 23.7957 32.7005 23.5862 32.7434 23.374C32.7849 23.1618 32.8171 22.9482 32.8385 22.732C32.86 22.5172 32.8707 22.301 32.8707 22.0848H37.3121C37.3121 22.4451 37.2933 22.8054 37.2585 23.1644C37.2223 23.5234 37.1687 23.8798 37.0977 24.2334C37.0266 24.5871 36.9395 24.9367 36.8336 25.2824C36.7278 25.628 36.6058 25.967 36.4664 26.3007C36.327 26.6343 36.1716 26.9599 36 27.2776C35.8298 27.5965 35.6422 27.9048 35.4412 28.2051C35.2388 28.5054 35.0217 28.795 34.7912 29.0739C34.5607 29.3528 34.3168 29.6197 34.0594 29.8746C33.8035 30.1309 33.5341 30.3724 33.2526 30.6007C32.9712 30.8302 32.6804 31.0451 32.3775 31.2452C32.076 31.4454 31.7637 31.6309 31.4434 31.8018C31.1231 31.9713 30.7947 32.1261 30.4583 32.2635C30.122 32.401 29.7802 32.5224 29.4331 32.6279C29.0846 32.732 28.7322 32.82 28.3757 32.8908C28.0192 32.9615 27.66 33.0136 27.2982 33.0496C26.9363 33.0843 26.5731 33.1016 26.2099 33.1016C25.8467 33.1016 25.4836 33.0843 25.1217 33.0496C24.7598 33.0136 24.4007 32.9615 24.0442 32.8908C23.6877 32.82 23.3352 32.732 22.9868 32.6279C22.6397 32.5224 22.2979 32.401 21.9615 32.2635C21.6251 32.1261 21.2981 31.9713 20.9765 31.8018C20.6562 31.6309 20.3453 31.4454 20.0424 31.2452C19.7395 31.0451 19.4487 30.8302 19.1672 30.6007C18.8858 30.3724 18.6177 30.1309 18.3604 29.8746C18.1031 29.6197 17.8592 29.3528 17.6287 29.0739C17.3982 28.795 17.1811 28.5054 16.98 28.2051C16.7777 27.9048 16.5914 27.5965 16.4198 27.2776C16.2483 26.9599 16.0928 26.6343 15.9534 26.3007C15.8141 25.967 15.6921 25.628 15.5862 25.2824C15.4804 24.9367 15.3932 24.5871 15.3222 24.2334C15.2512 23.8798 15.1976 23.5234 15.1614 23.1644C15.1265 22.8054 15.1091 22.4451 15.1091 22.0848Z" fill="#4D1299"/>
</g>
<mask id="mask1_314_10826" style="mask-type:luminance" maskUnits="userSpaceOnUse" x="17" y="13" width="7" height="7">
<path d="M17.7864 13.9525H23.765V19.8153H17.7864V13.9525Z" fill="white"/>
</mask>
<g mask="url(#mask1_314_10826)">
<mask id="mask2_314_10826" style="mask-type:luminance" maskUnits="userSpaceOnUse" x="17" y="13" width="7" height="7">
<path d="M20.775 13.9525C19.1239 13.9525 17.7864 15.2884 17.7864 16.9366C17.7864 18.5848 19.1239 19.9207 20.775 19.9207C22.4248 19.9207 23.7636 18.5848 23.7636 16.9366C23.7636 15.2884 22.4248 13.9525 20.775 13.9525Z" fill="white"/>
</mask>
<g mask="url(#mask2_314_10826)">
<path d="M17.7864 13.9525H23.647V19.7886H17.7864V13.9525Z" fill="#D854A5"/>
</g>
</g>
<path d="M3.68821 52.8695C2.9444 52.8695 2.29441 52.7121 1.73689 52.3944C1.17937 52.0741 0.750508 51.6177 0.450305 51.0225C0.150102 50.4246 0 49.7253 0 48.9245C0 48.1278 0.150102 47.4338 0.450305 46.8426C0.750508 46.2487 1.17937 45.791 1.73689 45.4707C2.29441 45.1504 2.9444 44.9902 3.68821 44.9902C4.17068 44.9902 4.62232 45.0623 5.04449 45.2038C5.46933 45.3466 5.84592 45.5508 6.17561 45.8177C6.2721 45.8924 6.33777 45.9711 6.37396 46.0526C6.4088 46.1313 6.42756 46.2274 6.42756 46.3408C6.42756 46.501 6.382 46.6371 6.29355 46.7465C6.20777 46.8533 6.1019 46.9067 5.97726 46.9067C5.82984 46.9067 5.67974 46.8573 5.52695 46.7572C5.21603 46.5223 4.92387 46.3608 4.65315 46.2714C4.38511 46.1793 4.08625 46.1326 3.7579 46.1326C2.99667 46.1326 2.42039 46.3702 2.03173 46.8426C1.64174 47.3164 1.44741 48.0104 1.44741 48.9245C1.44741 49.8507 1.64174 50.5501 2.03173 51.0225C2.42039 51.4923 2.99667 51.7271 3.7579 51.7271C4.06883 51.7271 4.35831 51.6818 4.62635 51.5883C4.89438 51.4923 5.19459 51.3321 5.52695 51.1079C5.60201 51.0625 5.67438 51.0252 5.74675 50.9958C5.8218 50.9678 5.89819 50.9531 5.97726 50.9531C6.1019 50.9531 6.20777 51.0091 6.29355 51.1186C6.382 51.2253 6.42756 51.3588 6.42756 51.519C6.42756 51.6297 6.4088 51.7271 6.37396 51.8126C6.33777 51.8953 6.2721 51.9714 6.17561 52.0421C5.84592 52.313 5.46933 52.5199 5.04449 52.6613C4.62232 52.8001 4.17068 52.8695 3.68821 52.8695Z" fill="#4D1299"/>
<path d="M11.042 52.8695C10.2915 52.8695 9.64015 52.7121 9.09067 52.3944C8.53985 52.0741 8.11501 51.6177 7.81481 51.0225C7.5146 50.4246 7.3645 49.7253 7.3645 48.9245C7.3645 48.1278 7.51192 47.4338 7.80945 46.8426C8.10563 46.2487 8.53047 45.791 9.08531 45.4707C9.63881 45.1504 10.2915 44.9902 11.042 44.9902C11.7952 44.9902 12.4479 45.1504 12.9987 45.4707C13.5482 45.791 13.9703 46.2487 14.2638 46.8426C14.56 47.4338 14.7088 48.1278 14.7088 48.9245C14.7088 49.7253 14.5587 50.4246 14.2585 51.0225C13.9609 51.6177 13.5374 52.0741 12.988 52.3944C12.4371 52.7121 11.7885 52.8695 11.042 52.8695ZM11.042 51.7485C11.7496 51.7485 12.3018 51.5056 12.6985 51.0172C13.0978 50.53 13.2989 49.8321 13.2989 48.9245C13.2989 48.017 13.0978 47.3217 12.6985 46.8373C12.3018 46.3542 11.7496 46.1113 11.042 46.1113C10.3263 46.1113 9.77149 46.3542 9.37479 46.8373C8.97809 47.3217 8.77975 48.017 8.77975 48.9245C8.77975 49.8321 8.97809 50.53 9.37479 51.0172C9.77149 51.5056 10.3263 51.7485 11.042 51.7485Z" fill="#4D1299"/>
<path d="M22.9276 45.0328C23.134 45.0328 23.2989 45.0969 23.4208 45.225C23.5455 45.3531 23.6085 45.5226 23.6085 45.7322V52.1861C23.6085 52.389 23.5495 52.5491 23.4316 52.6666C23.3163 52.78 23.1649 52.8374 22.9759 52.8374C22.7856 52.8374 22.6355 52.78 22.5256 52.6666C22.4144 52.5491 22.3594 52.389 22.3594 52.1861V47.6913L20.4992 51.2039C20.4134 51.364 20.3183 51.4841 20.2151 51.5616C20.1106 51.6363 19.9913 51.6737 19.8559 51.6737C19.7165 51.6737 19.5946 51.639 19.4914 51.5669C19.3909 51.4922 19.2957 51.372 19.2073 51.2039L17.3364 47.75V52.1861C17.3364 52.3823 17.2787 52.5411 17.1648 52.6612C17.0536 52.7787 16.9035 52.8374 16.7145 52.8374C16.5242 52.8374 16.3741 52.78 16.2642 52.6666C16.153 52.5491 16.098 52.389 16.098 52.1861V45.7322C16.098 45.5226 16.1583 45.3531 16.2803 45.225C16.4009 45.0969 16.5644 45.0328 16.7681 45.0328C17.0496 45.0328 17.272 45.1903 17.4329 45.5026L19.8666 50.1149L22.2844 45.5026C22.4452 45.1903 22.6596 45.0328 22.9276 45.0328Z" fill="#4D1299"/>
<path d="M25.9272 52.8377C25.7155 52.8377 25.5466 52.7736 25.418 52.6455C25.2893 52.5147 25.225 52.3439 25.225 52.133V45.7538C25.225 45.5443 25.2853 45.3801 25.4072 45.2627C25.5279 45.1452 25.694 45.0865 25.9058 45.0865H29.7495C30.1917 45.0865 30.4142 45.2774 30.4142 45.6577C30.4142 46.0287 30.1917 46.2129 29.7495 46.2129H26.6188V48.3055H29.5297C29.9719 48.3055 30.1944 48.495 30.1944 48.8714C30.1944 49.2424 29.9719 49.4265 29.5297 49.4265H26.6188V52.133C26.6188 52.3439 26.5558 52.5147 26.4311 52.6455C26.3052 52.7736 26.1376 52.8377 25.9272 52.8377Z" fill="#4D1299"/>
<path d="M34.801 52.8695C34.0505 52.8695 33.3992 52.7121 32.8497 52.3944C32.2989 52.0741 31.874 51.6177 31.5738 51.0225C31.2736 50.4246 31.1235 49.7253 31.1235 48.9245C31.1235 48.1278 31.271 47.4338 31.5685 46.8426C31.8647 46.2487 32.2895 45.791 32.8443 45.4707C33.3978 45.1504 34.0505 44.9902 34.801 44.9902C35.5542 44.9902 36.2069 45.1504 36.7577 45.4707C37.3072 45.791 37.7293 46.2487 38.0228 46.8426C38.319 47.4338 38.4678 48.1278 38.4678 48.9245C38.4678 49.7253 38.3177 50.4246 38.0175 51.0225C37.72 51.6177 37.2965 52.0741 36.747 52.3944C36.1962 52.7121 35.5475 52.8695 34.801 52.8695ZM34.801 51.7485C35.5086 51.7485 36.0608 51.5056 36.4575 51.0172C36.8569 50.53 37.0579 49.8321 37.0579 48.9245C37.0579 48.017 36.8569 47.3217 36.4575 46.8373C36.0608 46.3542 35.5086 46.1113 34.801 46.1113C34.0854 46.1113 33.5305 46.3542 33.1338 46.8373C32.7371 47.3217 32.5388 48.017 32.5388 48.9245C32.5388 49.8321 32.7371 50.53 33.1338 51.0172C33.5305 51.5056 34.0854 51.7485 34.801 51.7485Z" fill="#4D1299"/>
<path d="M46.01 51.8928C46.0957 52.0209 46.1386 52.1477 46.1386 52.2718C46.1386 52.44 46.0703 52.5788 45.9349 52.6882C45.8022 52.795 45.6454 52.8484 45.4632 52.8484C45.3452 52.8484 45.2326 52.8217 45.1254 52.7683C45.0209 52.7149 44.9324 52.6335 44.8574 52.5227L43.4046 50.3234C43.2572 50.0885 43.1017 49.9257 42.9382 49.8322C42.7734 49.7362 42.5603 49.6881 42.3003 49.6881H41.2282V52.133C41.2282 52.3506 41.1652 52.5227 41.0405 52.6509C40.9145 52.775 40.747 52.8377 40.5366 52.8377C40.3249 52.8377 40.156 52.775 40.0273 52.6509C39.8987 52.5227 39.8344 52.3506 39.8344 52.133V45.7538C39.8344 45.5443 39.8947 45.3801 40.0166 45.2627C40.1372 45.1452 40.3034 45.0865 40.5152 45.0865H43.2492C44.1243 45.0865 44.7904 45.2827 45.2487 45.6737C45.7057 46.0621 45.9349 46.6226 45.9349 47.3553C45.9349 47.9532 45.7647 48.443 45.4256 48.8233C45.0852 49.205 44.6054 49.4506 43.9836 49.56C44.194 49.6107 44.3803 49.7015 44.5411 49.8322C44.7019 49.9604 44.8587 50.1419 45.0129 50.3768L46.01 51.8928ZM43.0562 48.6098C43.5882 48.6098 43.9782 48.511 44.2248 48.3108C44.4714 48.112 44.5947 47.8037 44.5947 47.3873C44.5947 46.9683 44.4714 46.6613 44.2248 46.4691C43.9782 46.277 43.5882 46.1809 43.0562 46.1809H41.2121V48.6098H43.0562Z" fill="#4D1299"/>
<path d="M49.9164 52.827C49.6979 52.827 49.525 52.7656 49.3964 52.6402C49.2677 52.5121 49.2034 52.3439 49.2034 52.133V46.2449H47.2146C46.775 46.2449 46.5552 46.0527 46.5552 45.6684C46.5552 45.2814 46.775 45.0865 47.2146 45.0865H52.6075C53.0471 45.0865 53.2669 45.2814 53.2669 45.6684C53.2669 46.0527 53.0471 46.2449 52.6075 46.2449H50.6186V52.133C50.6186 52.3439 50.5543 52.5121 50.4257 52.6402C50.297 52.7656 50.1268 52.827 49.9164 52.827Z" fill="#4D1299"/>
<path d="M13.4593 63.7509C13.6268 63.7509 13.7608 63.8017 13.8613 63.9004C13.9645 63.9965 14.0168 64.1246 14.0168 64.2848V66.6283C14.0168 66.9633 13.9712 67.1995 13.8828 67.3383C13.797 67.4771 13.6174 67.5892 13.3467 67.6746C13.0572 67.7787 12.7168 67.8587 12.3282 67.9148C11.9422 67.9709 11.5696 68.0002 11.2131 68.0002C10.4197 68.0002 9.72952 67.8454 9.14386 67.5358C8.56088 67.2235 8.11459 66.7711 7.80367 66.1799C7.49274 65.586 7.33728 64.8773 7.33728 64.0552C7.33728 63.2518 7.49274 62.5538 7.80367 61.9626C8.11459 61.3687 8.55418 60.9136 9.12242 60.596C9.69066 60.2797 10.3621 60.1209 11.1381 60.1209C12.1673 60.1209 13.0103 60.3972 13.6684 60.9483C13.7541 61.0311 13.8158 61.1125 13.856 61.1939C13.8989 61.2726 13.9203 61.3647 13.9203 61.4715C13.9203 61.6316 13.8747 61.7678 13.7863 61.8772C13.7005 61.984 13.5946 62.0374 13.47 62.0374C13.3869 62.0374 13.3145 62.0253 13.2502 62C13.1859 61.976 13.1081 61.9346 13.0197 61.8772C12.6981 61.6503 12.3978 61.4915 12.1191 61.4021C11.843 61.31 11.5307 61.2633 11.181 61.2633C10.3835 61.2633 9.78313 61.4982 9.37973 61.968C8.975 62.4377 8.77397 63.1344 8.77397 64.0552C8.77397 65.945 9.60489 66.8899 11.2667 66.8899C11.7626 66.8899 12.2598 66.8205 12.757 66.6817V64.7545H11.5187C11.3431 64.7545 11.2051 64.7118 11.1059 64.6264C11.0094 64.5383 10.9612 64.4129 10.9612 64.2527C10.9612 64.0926 11.0094 63.9698 11.1059 63.8844C11.2051 63.7963 11.3431 63.7509 11.5187 63.7509H13.4593Z" fill="#4D1299"/>
<path d="M21.7208 67.0235C21.8065 67.1516 21.8494 67.2784 21.8494 67.4025C21.8494 67.5707 21.7811 67.7095 21.6457 67.8189C21.513 67.9257 21.3562 67.9791 21.174 67.9791C21.056 67.9791 20.9435 67.9524 20.8362 67.899C20.7317 67.8456 20.6433 67.7642 20.5682 67.6534L19.1154 65.454C18.968 65.2192 18.8126 65.0563 18.6491 64.9629C18.4842 64.8668 18.2711 64.8188 18.0111 64.8188H16.939V67.2637C16.939 67.4813 16.876 67.6534 16.7513 67.7815C16.6254 67.9057 16.4578 67.9684 16.2474 67.9684C16.0357 67.9684 15.8668 67.9057 15.7382 67.7815C15.6095 67.6534 15.5452 67.4813 15.5452 67.2637V60.8845C15.5452 60.675 15.6055 60.5108 15.7274 60.3934C15.848 60.2759 16.0142 60.2172 16.226 60.2172H18.96C19.8351 60.2172 20.5012 60.4134 20.9595 60.8044C21.4165 61.1928 21.6457 61.7533 21.6457 62.486C21.6457 63.0838 21.4755 63.5736 21.1364 63.954C20.796 64.3357 20.3163 64.5812 19.6944 64.6907C19.9048 64.7414 20.0911 64.8321 20.2519 64.9629C20.4127 65.091 20.5695 65.2725 20.7237 65.5074L21.7208 67.0235ZM18.767 63.7405C19.299 63.7405 19.689 63.6417 19.9356 63.4415C20.1822 63.2427 20.3055 62.9344 20.3055 62.518C20.3055 62.0989 20.1822 61.792 19.9356 61.5998C19.689 61.4076 19.299 61.3115 18.767 61.3115H16.9229V63.7405H18.767Z" fill="#4D1299"/>
<path d="M26.5328 68.0002C25.7823 68.0002 25.131 67.8427 24.5815 67.5251C24.0307 67.2048 23.6059 66.7484 23.3057 66.1532C23.0054 65.5553 22.8553 64.856 22.8553 64.0552C22.8553 63.2585 23.0028 62.5645 23.3003 61.9733C23.5965 61.3794 24.0213 60.9217 24.5762 60.6014C25.1297 60.2811 25.7823 60.1209 26.5328 60.1209C27.286 60.1209 27.9387 60.2811 28.4895 60.6014C29.039 60.9217 29.4612 61.3794 29.7547 61.9733C30.0508 62.5645 30.1996 63.2585 30.1996 64.0552C30.1996 64.856 30.0495 65.5553 29.7493 66.1532C29.4518 66.7484 29.0283 67.2048 28.4788 67.5251C27.928 67.8427 27.2793 68.0002 26.5328 68.0002ZM26.5328 66.8792C27.2405 66.8792 27.7926 66.6363 28.1893 66.1478C28.5887 65.6607 28.7897 64.9627 28.7897 64.0552C28.7897 63.1477 28.5887 62.4524 28.1893 61.968C27.7926 61.4848 27.2405 61.2419 26.5328 61.2419C25.8172 61.2419 25.2623 61.4848 24.8656 61.968C24.4689 62.4524 24.2706 63.1477 24.2706 64.0552C24.2706 64.9627 24.4689 65.6607 24.8656 66.1478C25.2623 66.6363 25.8172 66.8792 26.5328 66.8792Z" fill="#4D1299"/>
<path d="M34.7514 67.9996C33.6926 67.9996 32.8912 67.7273 32.3444 67.1828C31.7976 66.6383 31.5242 65.8429 31.5242 64.7966V60.8623C31.5242 60.6528 31.5845 60.4833 31.7064 60.3551C31.8311 60.227 32.0013 60.163 32.2157 60.163C32.4261 60.163 32.5923 60.227 32.7143 60.3551C32.8389 60.4833 32.9019 60.6528 32.9019 60.8623V64.8713C32.9019 65.5333 33.0587 66.0337 33.3736 66.3714C33.6872 66.7104 34.1469 66.8785 34.7514 66.8785C35.3518 66.8785 35.8074 66.7077 36.1184 66.366C36.432 66.0244 36.5901 65.5266 36.5901 64.8713V60.8623C36.5901 60.6528 36.6517 60.4833 36.7777 60.3551C36.9024 60.227 37.0699 60.163 37.2816 60.163C37.492 60.163 37.6596 60.227 37.7855 60.3551C37.9102 60.4833 37.9732 60.6528 37.9732 60.8623V64.7966C37.9732 65.8362 37.6971 66.6303 37.1476 67.1775C36.6008 67.726 35.8021 67.9996 34.7514 67.9996Z" fill="#4D1299"/>
<path d="M40.2356 67.9684C40.0238 67.9684 39.855 67.9057 39.7263 67.7815C39.5977 67.6534 39.5333 67.4813 39.5333 67.2637V60.8845C39.5333 60.675 39.5936 60.5108 39.7156 60.3934C39.8362 60.2759 40.0024 60.2172 40.2141 60.2172H42.9053C43.7308 60.2172 44.3714 60.4241 44.8298 60.8364C45.2908 61.2461 45.5213 61.8213 45.5213 62.5607C45.5213 63.3054 45.2908 63.8833 44.8298 64.2956C44.3714 64.7094 43.7308 64.9149 42.9053 64.9149H40.9486V67.2637C40.9486 67.4813 40.8842 67.6534 40.7556 67.7815C40.6269 67.9057 40.4527 67.9684 40.2356 67.9684ZM42.7283 63.8365C43.7 63.8365 44.1865 63.4148 44.1865 62.5714C44.1865 61.7319 43.7 61.3115 42.7283 61.3115H40.9486V63.8365H42.7283Z" fill="#4D1299"/>
</svg>
